<svg xmlns="http://www.w3.org/2000/svg" viewBox="0 0 420 130" role="img" aria-labelledby="title desc">
<title id="title">Glow by Gaby</title><desc id="desc">Logo provisional en rosa y plata</desc>
<defs>
  <linearGradient id="metal" x1="0" y1="0" x2="1" y2="1">
    <stop offset="0" stop-color="#ffffff"/><stop offset=".35" stop-color="#c7cbd3"/>
    <stop offset=".68" stop-color="#f0a7bd"/><stop offset="1" stop-color="#8c5668"/>
  </linearGradient>
</defs>
<circle cx="62" cy="65" r="51" fill="#fff8fb" stroke="url(#metal)" stroke-width="5"/>
<path d="M86 48c-6-9-15-13-25-13-19 0-33 13-33 31s14 31 34 31c12 0 22-5 28-13V62H59v12h17v5c-3 4-8 6-14 6-12 0-20-8-20-19s8-19 20-19c7 0 13 3 17 8z" fill="url(#metal)"/>
<text x="128" y="62" font-family="Georgia,serif" font-size="42" font-weight="700" fill="#2c2930">Glow by Gaby</text>
<text x="130" y="91" font-family="Arial,sans-serif" font-size="14" letter-spacing="3" fill="#8b5669">BELLEZA · TECNOLOGÍA · BIENESTAR</text>
</svg>